<svg width="150" height="72" viewBox="0 0 150 72" fill="none" xmlns="http://www.w3.org/2000/svg">
<g clip-path="url(#clip0)">
<path d="M54.3659 42.0484V34.2873L66.0435 42.0484H93.2019L69.8995 26.5223L72.7056 24.7964L98.5233 42.0484H108.562V11.0604H93.1566V18.8367L81.5621 11.0604H65.8509L54.3659 18.8367V11L38.768 21.4162V31.6058L28.5067 24.7435L49.2258 11H23.2986L0 26.5223L23.2986 42.0484H54.3659Z" fill="#192C43"/>
<path d="M113.725 42.0484L137.023 26.5223L113.725 11H113.74H126.701L150 26.5223L126.701 42.0484H114.623H113.725Z" fill="#FFB301"/>
<path d="M29.2276 51.4146L31.8411 60.9772C31.8713 61.1547 31.7958 61.2152 31.6485 61.2152H29.7601C29.6242 61.2152 29.6129 61.1547 29.5675 60.9772L28.7178 57.8879H24.7296L23.8685 60.9772C23.8269 61.1547 23.8118 61.2152 23.6607 61.2152H21.7724C21.61 61.2152 21.5496 61.1547 21.5798 60.9772L24.2235 51.4146C24.6691 49.7981 24.9788 49.6357 26.6859 49.6357C28.5025 49.6357 28.782 49.7981 29.2276 51.4146ZM26.3347 52.0264L25.2507 55.958H28.189L27.1202 52.0264C27.0182 51.6487 27.0031 51.5959 26.7048 51.5959C26.4064 51.5959 26.4215 51.6676 26.3347 52.0264Z" fill="#192C43"/>
<path d="M42.5897 49.7227C42.7521 49.7227 42.8125 49.7831 42.8125 49.9455V55.4822C42.8125 60.1313 41.8759 61.287 38.1218 61.287C34.3677 61.287 33.416 60.1313 33.416 55.4822V49.9455C33.416 49.7831 33.4764 49.7227 33.6388 49.7227H35.5272C35.6896 49.7227 35.75 49.7831 35.75 49.9455V55.4822C35.75 58.5035 36.2259 59.2589 38.1256 59.2589C40.0253 59.2589 40.486 58.5035 40.486 55.4822V49.9455C40.486 49.7831 40.5465 49.7227 40.7089 49.7227H42.5897Z" fill="#192C43"/>
<path d="M53.4438 49.7225C53.4748 49.7179 53.5065 49.7203 53.5364 49.7296C53.5664 49.7389 53.5938 49.7549 53.6167 49.7763C53.6396 49.7978 53.6573 49.8241 53.6686 49.8534C53.6799 49.8827 53.6843 49.9141 53.6817 49.9454V51.5354C53.6843 51.5666 53.6799 51.5981 53.6686 51.6273C53.6573 51.6566 53.6396 51.683 53.6167 51.7044C53.5938 51.7258 53.5664 51.7418 53.5364 51.7511C53.5065 51.7604 53.4748 51.7629 53.4438 51.7582H50.3393V60.9772C50.3393 61.1396 50.2675 61.2151 50.1165 61.2151H48.2281C48.0808 61.2151 48.0053 61.1396 48.0053 60.9772V51.7582H44.9046C44.8743 51.7626 44.8434 51.7599 44.8143 51.7503C44.7853 51.7407 44.7589 51.7244 44.7372 51.7027C44.7156 51.6811 44.6993 51.6547 44.6897 51.6256C44.68 51.5966 44.6773 51.5657 44.6818 51.5354V49.9454C44.6773 49.9151 44.68 49.8842 44.6897 49.8551C44.6993 49.826 44.7156 49.7996 44.7372 49.778C44.7589 49.7563 44.7853 49.74 44.8143 49.7304C44.8434 49.7208 44.8743 49.7181 44.9046 49.7225H53.4438Z" fill="#192C43"/>
<path d="M64.6388 55.4821C64.6388 59.9651 63.6153 61.2869 59.8273 61.2869C56.0392 61.2869 55.0195 59.9651 55.0195 55.4821C55.0195 50.9991 56.043 49.6357 59.8273 49.6357C63.6116 49.6357 64.6388 50.9803 64.6388 55.4821ZM57.38 55.4821C57.38 58.3637 57.7803 59.2588 59.8273 59.2588C61.8743 59.2588 62.2784 58.3675 62.2784 55.4821C62.2784 52.5967 61.878 51.6676 59.8273 51.6676C57.7765 51.6676 57.38 52.574 57.38 55.4821Z" fill="#192C43"/>
<path d="M78.6954 49.7077C78.8465 49.7077 78.8729 49.8134 78.888 49.9456L79.9568 60.9774C79.9568 61.1398 79.8851 61.2153 79.734 61.2153H77.8456C77.6983 61.2153 77.6379 61.1398 77.6228 60.9774L76.9694 53.8507L74.2993 60.6488C74.2792 60.7155 74.2375 60.7736 74.1808 60.8139C74.124 60.8543 74.0554 60.8746 73.9858 60.8716H72.5771C72.5086 60.87 72.4421 60.8479 72.3863 60.8082C72.3304 60.7685 72.2877 60.713 72.2636 60.6488L69.6199 53.8507L68.9666 60.9774C68.9666 61.1398 68.891 61.2153 68.7437 61.2153H66.8554C66.7043 61.2153 66.6174 61.1398 66.6326 60.9774L67.7014 49.9607C67.7014 49.8134 67.7467 49.7228 67.894 49.7228H69.6879C69.8763 49.6953 70.0681 49.7399 70.2249 49.8478C70.3818 49.9556 70.4921 50.1187 70.5339 50.3044L73.2834 57.533L76.0441 50.3044C76.0826 50.1159 76.1916 49.9492 76.3488 49.8383C76.506 49.7274 76.6996 49.6807 76.8901 49.7077H78.6954Z" fill="#192C43"/>
<path d="M91.5702 55.4821C91.5702 59.9651 90.5467 61.2869 86.7586 61.2869C82.9706 61.2869 81.9697 59.9651 81.9697 55.4821C81.9697 50.9991 82.9932 49.6357 86.7775 49.6357C90.5618 49.6357 91.5702 50.9803 91.5702 55.4821ZM84.3113 55.4821C84.3113 58.3637 84.7116 59.2588 86.7586 59.2588C88.8056 59.2588 89.2097 58.3675 89.2097 55.4821C89.2097 52.5967 88.8094 51.6676 86.7586 51.6676C84.7078 51.6676 84.3113 52.574 84.3113 55.4821V55.4821Z" fill="#192C43"/>
<path d="M101.665 49.7225C101.696 49.7179 101.728 49.7203 101.758 49.7296C101.788 49.7389 101.815 49.7549 101.838 49.7763C101.861 49.7978 101.879 49.8241 101.89 49.8534C101.902 49.8827 101.906 49.9141 101.903 49.9454V51.5354C101.906 51.5666 101.902 51.5981 101.89 51.6273C101.879 51.6566 101.861 51.683 101.838 51.7044C101.815 51.7258 101.788 51.7418 101.758 51.7511C101.728 51.7604 101.696 51.7629 101.665 51.7582H98.561V60.9772C98.561 61.1396 98.4892 61.2151 98.3381 61.2151H96.4498C96.3025 61.2151 96.227 61.1396 96.227 60.9772V51.7582H93.1263C93.096 51.7626 93.0651 51.7599 93.036 51.7503C93.0069 51.7407 92.9805 51.7244 92.9589 51.7027C92.9372 51.6811 92.9209 51.6547 92.9113 51.6256C92.9017 51.5966 92.899 51.5657 92.9035 51.5354V49.9454C92.899 49.9151 92.9017 49.8842 92.9113 49.8551C92.9209 49.826 92.9372 49.7996 92.9589 49.778C92.9805 49.7563 93.0069 49.74 93.036 49.7304C93.0651 49.7208 93.096 49.7181 93.1263 49.7225H101.665Z" fill="#192C43"/>
<path d="M105.971 49.7227C106.118 49.7227 106.193 49.7982 106.193 49.9606V60.9773C106.193 61.1397 106.118 61.2152 105.971 61.2152H104.082C103.935 61.2152 103.859 61.1397 103.859 60.9773V49.9606C103.859 49.7982 103.935 49.7227 104.082 49.7227H105.971Z" fill="#192C43"/>
<path d="M110.216 49.7227C110.352 49.7227 110.368 49.7831 110.424 49.9606L112.739 58.9416C112.845 59.2853 112.875 59.3873 113.068 59.3873C113.26 59.3873 113.351 59.2853 113.446 58.9416L115.712 49.9606C115.757 49.7831 115.787 49.7227 115.923 49.7227H117.811C117.959 49.7227 118.034 49.7831 117.989 49.9606L115.538 59.5232C115.122 61.1095 114.854 61.287 113.06 61.287C111.338 61.287 111.055 61.1246 110.624 59.5232L108.117 49.9606C108.071 49.7831 108.147 49.7227 108.294 49.7227H110.216Z" fill="#192C43"/>
<path d="M127.646 49.7228C127.676 49.7183 127.707 49.721 127.736 49.7307C127.765 49.7403 127.791 49.7566 127.813 49.7782C127.835 49.7999 127.851 49.8263 127.861 49.8553C127.87 49.8844 127.873 49.9153 127.868 49.9456V51.5356C127.873 51.5659 127.87 51.5968 127.861 51.6259C127.851 51.6549 127.835 51.6814 127.813 51.703C127.791 51.7246 127.765 51.7409 127.736 51.7506C127.707 51.7602 127.676 51.7629 127.646 51.7584H122.317V54.5645H127.185C127.336 54.5645 127.423 54.6363 127.423 54.7874V56.2981C127.425 56.3293 127.421 56.3608 127.41 56.39C127.398 56.4193 127.381 56.4457 127.358 56.4671C127.335 56.4885 127.307 56.5045 127.278 56.5138C127.248 56.5231 127.216 56.5256 127.185 56.5209H122.317V59.1646H127.646C127.676 59.1601 127.707 59.1628 127.736 59.1725C127.765 59.1821 127.791 59.1984 127.813 59.22C127.835 59.2417 127.851 59.2681 127.861 59.2972C127.87 59.3262 127.873 59.3571 127.868 59.3874V60.9774C127.873 61.0077 127.87 61.0386 127.861 61.0677C127.851 61.0967 127.835 61.1232 127.813 61.1448C127.791 61.1665 127.765 61.1827 127.736 61.1924C127.707 61.202 127.676 61.2047 127.646 61.2002H120.209C120.062 61.2002 119.986 61.1247 119.986 60.9623V49.9456C119.982 49.9153 119.985 49.8844 119.994 49.8553C120.004 49.8263 120.02 49.7999 120.042 49.7782C120.064 49.7566 120.09 49.7403 120.119 49.7307C120.148 49.721 120.179 49.7183 120.209 49.7228H127.646Z" fill="#192C43"/>
</g>
<defs>
<clipPath id="clip0">
<rect width="150" height="50.2908" fill="white" transform="translate(0 11)"/>
</clipPath>
</defs>
</svg>
